# xmcd
#
# Track frame offsets: 
#        182
#        13282
#        25240
#        37027
#        48982
#        63605
#        75915
#        88772
#        103852
#        114202
#        126947
#        139155
#        148902
#        160137
#        172222
#        183852
#        195237
#        206082
#        218427
#        230182
#        241950
#        254902
#        267322
#        281612
#        292415
#
# Disc length: 4041 seconds
#
# Revision: 2
# Processed by: cddbd v1.5.2PL0 Copyright (c) Steve Scherf et al.
# Submitted via: ExactAudioCopy v0.99pb5
#
DISCID=850fc719
DTITLE=Various Artist - Country Heart Breakers
DYEAR=1994
DGENRE=Country
TTITLE0=Fayon Young - It's Four In The Morning
TTITLE1=Skeeter Davis - The End Of The World
TTITLE2=Don Gibson - I Can't Stop Loving You
TTITLE3=Wilma Burgess - Misty Blue
TTITLE4=Johnny Darrell - With Pen In Hand
TTITLE5=Jack Scott - Burning Bridges
TTITLE6=Kitty Wells - Making Believe
TTITLE7=Porter Wagner - The Cold Hard Facts Of Life
TTITLE8=Connie Smith - One A Day
TTITLE9=Roger Miller - The Last Word In Lonesome Is Me
TTITLE10=Stonewall Jackson - A Wound Time Can't Erase
TTITLE11=Rose Maddox - Sing A Little Song Of Heartache
TTITLE12=Conway Twitty - It's Only Make Believe
TTITLE13=Jack Greene - There Goes My Everything
TTITLE14=Leon Ashlep - Laura, What's He Got That I Ain't Got
TTITLE15=Don Gibson - Sea Of Heartbreak
TTITLE16=Warren Smith - I Don't Believe I'll Fall In Love Today
TTITLE17=Jeannie Pruett - Satin Sheets
TTITLE18=Bill Phillips - Put It Off Until Tomorrow
TTITLE19=Patsy Cline - A Poor Man's Roses
TTITLE20=Jim Ed Brown - Morning
TTITLE21=Porter Wagoner - A Satisfied Mind
TTITLE22=Narvel Felts - Funny How Time Slips Away
TTITLE23=Carl Belew - Am I That Easy To Forget?
TTITLE24=Faron Young - I Miss You Already
EXTD=
EXTT0=
EXTT1=
EXTT2=
EXTT3=
EXTT4=
EXTT5=
EXTT6=
EXTT7=
EXTT8=
EXTT9=
EXTT10=
EXTT11=
EXTT12=
EXTT13=
EXTT14=
EXTT15=
EXTT16=
EXTT17=
EXTT18=
EXTT19=
EXTT20=
EXTT21=
EXTT22=
EXTT23=
EXTT24=
PLAYORDER=
